<svg width="71" height="70" viewBox="0 0 71 70" fill="none" xmlns="http://www.w3.org/2000/svg">
<g clip-path="url(#clip0_1061_4939)">
<path d="M28 12.5H42C42.2652 12.5 42.5196 12.6054 42.7071 12.7929C42.8946 12.9804 43 13.2348 43 13.5V32.643C43.0001 32.7324 42.9763 32.8202 42.9309 32.8973C42.8855 32.9743 42.8204 33.0378 42.7421 33.0811C42.6639 33.1244 42.5755 33.1459 42.4861 33.1434C42.3968 33.141 42.3097 33.1146 42.234 33.067L35 28.53L27.766 33.066C27.6904 33.1135 27.6034 33.1399 27.5141 33.1424C27.4248 33.1449 27.3365 33.1235 27.2583 33.0803C27.1801 33.0371 27.1149 32.9738 27.0695 32.8969C27.0241 32.82 27.0001 32.7323 27 32.643V13.5C27 13.2348 27.1054 12.9804 27.2929 12.7929C27.4804 12.6054 27.7348 12.5 28 12.5ZM41 14.5H29V29.932L35 26.171L41 29.932V14.5Z" fill="#4E4B66"/>
</g>
<path d="M5.464 48.474C5.81867 48.53 6.14067 48.6747 6.43 48.908C6.72867 49.1413 6.962 49.4307 7.13 49.776C7.30733 50.1213 7.396 50.49 7.396 50.882C7.396 51.3767 7.27 51.8247 7.018 52.226C6.766 52.618 6.39733 52.9307 5.912 53.164C5.436 53.388 4.87133 53.5 4.218 53.5H0.578V43.742H4.078C4.74067 43.742 5.30533 43.854 5.772 44.078C6.23867 44.2927 6.58867 44.5867 6.822 44.96C7.05533 45.3333 7.172 45.7533 7.172 46.22C7.172 46.7987 7.01333 47.2793 6.696 47.662C6.388 48.0353 5.97733 48.306 5.464 48.474ZM1.852 47.956H3.994C4.59133 47.956 5.05333 47.816 5.38 47.536C5.70667 47.256 5.87 46.8687 5.87 46.374C5.87 45.8793 5.70667 45.492 5.38 45.212C5.05333 44.932 4.582 44.792 3.966 44.792H1.852V47.956ZM4.106 52.45C4.74067 52.45 5.23533 52.3007 5.59 52.002C5.94467 51.7033 6.122 51.288 6.122 50.756C6.122 50.2147 5.93533 49.79 5.562 49.482C5.18867 49.1647 4.68933 49.006 4.064 49.006H1.852V52.45H4.106ZM12.6299 53.626C11.9113 53.626 11.2579 53.4627 10.6699 53.136C10.0913 52.8093 9.63394 52.3473 9.29794 51.75C8.97127 51.1433 8.80794 50.4433 8.80794 49.65C8.80794 48.866 8.97594 48.1753 9.31194 47.578C9.65727 46.9713 10.1239 46.5093 10.7119 46.192C11.2999 45.8653 11.9579 45.702 12.6859 45.702C13.4139 45.702 14.0719 45.8653 14.6599 46.192C15.2479 46.5093 15.7099 46.9667 16.0459 47.564C16.3913 48.1613 16.5639 48.8567 16.5639 49.65C16.5639 50.4433 16.3866 51.1433 16.0319 51.75C15.6866 52.3473 15.2153 52.8093 14.6179 53.136C14.0206 53.4627 13.3579 53.626 12.6299 53.626ZM12.6299 52.506C13.0873 52.506 13.5166 52.3987 13.9179 52.184C14.3193 51.9693 14.6413 51.6473 14.8839 51.218C15.1359 50.7887 15.2619 50.266 15.2619 49.65C15.2619 49.034 15.1406 48.5113 14.8979 48.082C14.6553 47.6527 14.3379 47.3353 13.9459 47.13C13.5539 46.9153 13.1293 46.808 12.6719 46.808C12.2053 46.808 11.7759 46.9153 11.3839 47.13C11.0013 47.3353 10.6933 47.6527 10.4599 48.082C10.2266 48.5113 10.1099 49.034 10.1099 49.65C10.1099 50.2753 10.2219 50.8027 10.4459 51.232C10.6793 51.6613 10.9873 51.9833 11.3699 52.198C11.7526 52.4033 12.1726 52.506 12.6299 52.506ZM21.705 53.626C20.9863 53.626 20.333 53.4627 19.745 53.136C19.1663 52.8093 18.709 52.3473 18.373 51.75C18.0463 51.1433 17.883 50.4433 17.883 49.65C17.883 48.866 18.051 48.1753 18.387 47.578C18.7323 46.9713 19.199 46.5093 19.787 46.192C20.375 45.8653 21.033 45.702 21.761 45.702C22.489 45.702 23.147 45.8653 23.735 46.192C24.323 46.5093 24.785 46.9667 25.121 47.564C25.4663 48.1613 25.639 48.8567 25.639 49.65C25.639 50.4433 25.4617 51.1433 25.107 51.75C24.7617 52.3473 24.2903 52.8093 23.693 53.136C23.0957 53.4627 22.433 53.626 21.705 53.626ZM21.705 52.506C22.1623 52.506 22.5917 52.3987 22.993 52.184C23.3943 51.9693 23.7163 51.6473 23.959 51.218C24.211 50.7887 24.337 50.266 24.337 49.65C24.337 49.034 24.2157 48.5113 23.973 48.082C23.7303 47.6527 23.413 47.3353 23.021 47.13C22.629 46.9153 22.2043 46.808 21.747 46.808C21.2803 46.808 20.851 46.9153 20.459 47.13C20.0763 47.3353 19.7683 47.6527 19.535 48.082C19.3017 48.5113 19.185 49.034 19.185 49.65C19.185 50.2753 19.297 50.8027 19.521 51.232C19.7543 51.6613 20.0623 51.9833 20.445 52.198C20.8277 52.4033 21.2477 52.506 21.705 52.506ZM31.7181 53.5L28.7081 50.112V53.5H27.4341V43.14H28.7081V49.23L31.6621 45.828H33.4401L29.8281 49.65L33.4541 53.5H31.7181ZM43.9852 45.688C44.5825 45.688 45.1145 45.814 45.5812 46.066C46.0478 46.3087 46.4165 46.6773 46.6872 47.172C46.9578 47.6667 47.0932 48.2687 47.0932 48.978V53.5H45.8332V49.16C45.8332 48.3947 45.6418 47.8113 45.2592 47.41C44.8858 46.9993 44.3772 46.794 43.7332 46.794C43.0705 46.794 42.5432 47.0087 42.1512 47.438C41.7592 47.858 41.5632 48.4693 41.5632 49.272V53.5H40.3032V49.16C40.3032 48.3947 40.1118 47.8113 39.7292 47.41C39.3558 46.9993 38.8472 46.794 38.2032 46.794C37.5405 46.794 37.0132 47.0087 36.6212 47.438C36.2292 47.858 36.0332 48.4693 36.0332 49.272V53.5H34.7592V45.828H36.0332V46.934C36.2852 46.5327 36.6212 46.2247 37.0412 46.01C37.4705 45.7953 37.9418 45.688 38.4552 45.688C39.0992 45.688 39.6685 45.8327 40.1632 46.122C40.6578 46.4113 41.0265 46.836 41.2692 47.396C41.4838 46.8547 41.8385 46.4347 42.3332 46.136C42.8278 45.8373 43.3785 45.688 43.9852 45.688ZM48.827 49.636C48.827 48.852 48.9857 48.166 49.303 47.578C49.6203 46.9807 50.0543 46.5187 50.605 46.192C51.165 45.8653 51.7857 45.702 52.467 45.702C53.139 45.702 53.7223 45.8467 54.217 46.136C54.7117 46.4253 55.0803 46.7893 55.323 47.228V45.828H56.611V53.5H55.323V52.072C55.071 52.52 54.693 52.8933 54.189 53.192C53.6943 53.4813 53.1157 53.626 52.453 53.626C51.7717 53.626 51.1557 53.458 50.605 53.122C50.0543 52.786 49.6203 52.3147 49.303 51.708C48.9857 51.1013 48.827 50.4107 48.827 49.636ZM55.323 49.65C55.323 49.0713 55.2063 48.5673 54.973 48.138C54.7397 47.7087 54.4223 47.382 54.021 47.158C53.629 46.9247 53.195 46.808 52.719 46.808C52.243 46.808 51.809 46.92 51.417 47.144C51.025 47.368 50.7123 47.6947 50.479 48.124C50.2457 48.5533 50.129 49.0573 50.129 49.636C50.129 50.224 50.2457 50.7373 50.479 51.176C50.7123 51.6053 51.025 51.9367 51.417 52.17C51.809 52.394 52.243 52.506 52.719 52.506C53.195 52.506 53.629 52.394 54.021 52.17C54.4223 51.9367 54.7397 51.6053 54.973 51.176C55.2063 50.7373 55.323 50.2287 55.323 49.65ZM60.1579 47.074C60.3819 46.6353 60.6993 46.2947 61.1099 46.052C61.5299 45.8093 62.0386 45.688 62.6359 45.688V47.004H62.2999C60.8719 47.004 60.1579 47.7787 60.1579 49.328V53.5H58.8839V45.828H60.1579V47.074ZM68.5106 53.5L65.5006 50.112V53.5H64.2266V43.14H65.5006V49.23L68.4546 45.828H70.2326L66.6206 49.65L70.2466 53.5H68.5106Z" fill="#4E4B66"/>
<defs>
<clipPath id="clip0_1061_4939">
<rect width="24" height="24" fill="white" transform="translate(23 10.5)"/>
</clipPath>
</defs>
</svg>
