<svg width="31" height="30" viewBox="0 0 31 30" fill="none" xmlns="http://www.w3.org/2000/svg">
<rect x="0.5" width="30" height="30" rx="15" fill="#1877F2"/>
<path d="M7.50001 10.3684C7.50001 9.90358 7.86401 9.52632 8.29361 9.52632H22.7064C23.1448 9.52632 23.5 9.90105 23.5 10.3684V22.1579C23.5 22.6227 23.136 23 22.7064 23H8.29361C8.18892 22.9998 8.08529 22.9778 7.98868 22.9353C7.89208 22.8928 7.80439 22.8307 7.73065 22.7525C7.65692 22.6742 7.59859 22.5814 7.55901 22.4794C7.51943 22.3774 7.49938 22.2681 7.50001 22.1579V10.3684ZM9.10001 11.2105V21.3158H21.9V11.2105H9.10001ZM17.1 18.7895C17.7365 18.7895 18.347 18.5233 18.7971 18.0495C19.2471 17.5758 19.5 16.9332 19.5 16.2632C19.5 15.5931 19.2471 14.9506 18.7971 14.4768C18.347 14.003 17.7365 13.7368 17.1 13.7368C16.4635 13.7368 15.853 14.003 15.403 14.4768C14.9529 14.9506 14.7 15.5931 14.7 16.2632C14.7 16.9332 14.9529 17.5758 15.403 18.0495C15.853 18.5233 16.4635 18.7895 17.1 18.7895ZM17.1 20.4737C16.0391 20.4737 15.0217 20.0301 14.2716 19.2404C13.5214 18.4508 13.1 17.3799 13.1 16.2632C13.1 15.1465 13.5214 14.0755 14.2716 13.2859C15.0217 12.4962 16.0391 12.0526 17.1 12.0526C18.1609 12.0526 19.1783 12.4962 19.9284 13.2859C20.6786 14.0755 21.1 15.1465 21.1 16.2632C21.1 17.3799 20.6786 18.4508 19.9284 19.2404C19.1783 20.0301 18.1609 20.4737 17.1 20.4737ZM9.10001 7H13.9V8.68421H9.10001V7Z" fill="white"/>
</svg>
