<svg width="70" height="70" viewBox="0 0 70 70" fill="none" xmlns="http://www.w3.org/2000/svg">
<g clip-path="url(#clip0_1061_4933)">
<path d="M35 32.5C29.477 32.5 25 28.023 25 22.5C25 16.977 29.477 12.5 35 12.5C40.523 12.5 45 16.977 45 22.5C45 28.023 40.523 32.5 35 32.5ZM35 30.5C37.1217 30.5 39.1566 29.6571 40.6569 28.1569C42.1571 26.6566 43 24.6217 43 22.5C43 20.3783 42.1571 18.3434 40.6569 16.8431C39.1566 15.3429 37.1217 14.5 35 14.5C32.8783 14.5 30.8434 15.3429 29.3431 16.8431C27.8429 18.3434 27 20.3783 27 22.5C27 24.6217 27.8429 26.6566 29.3431 28.1569C30.8434 29.6571 32.8783 30.5 35 30.5ZM38.5 19L36.5 24L31.5 26L33.5 21L38.5 19Z" fill="#4E4B66"/>
</g>
<path d="M11.852 44.778V48.04H15.408V49.09H11.852V52.45H15.828V53.5H10.578V43.728H15.828V44.778H11.852ZM21.8797 53.5L20.0597 50.644L18.3097 53.5H16.9797L19.4577 49.692L16.9797 45.828H18.4217L20.2417 48.67L21.9777 45.828H23.3077L20.8437 49.622L23.3217 53.5H21.8797ZM25.969 47.242C26.221 46.8033 26.5943 46.4393 27.089 46.15C27.593 45.8513 28.1763 45.702 28.839 45.702C29.5203 45.702 30.1363 45.8653 30.687 46.192C31.247 46.5187 31.6856 46.9807 32.003 47.578C32.3203 48.166 32.479 48.852 32.479 49.636C32.479 50.4107 32.3203 51.1013 32.003 51.708C31.6856 52.3147 31.247 52.786 30.687 53.122C30.1363 53.458 29.5203 53.626 28.839 53.626C28.1856 53.626 27.607 53.4813 27.103 53.192C26.6083 52.8933 26.2303 52.5247 25.969 52.086V57.14H24.695V45.828H25.969V47.242ZM31.177 49.636C31.177 49.0573 31.0603 48.5533 30.827 48.124C30.5936 47.6947 30.2763 47.368 29.875 47.144C29.483 46.92 29.049 46.808 28.573 46.808C28.1063 46.808 27.6723 46.9247 27.271 47.158C26.879 47.382 26.5616 47.7133 26.319 48.152C26.0856 48.5813 25.969 49.0807 25.969 49.65C25.969 50.2287 26.0856 50.7373 26.319 51.176C26.5616 51.6053 26.879 51.9367 27.271 52.17C27.6723 52.394 28.1063 52.506 28.573 52.506C29.049 52.506 29.483 52.394 29.875 52.17C30.2763 51.9367 30.5936 51.6053 30.827 51.176C31.0603 50.7373 31.177 50.224 31.177 49.636ZM35.5499 43.14V53.5H34.2759V43.14H35.5499ZM41.1872 53.626C40.4685 53.626 39.8152 53.4627 39.2272 53.136C38.6485 52.8093 38.1912 52.3473 37.8552 51.75C37.5285 51.1433 37.3652 50.4433 37.3652 49.65C37.3652 48.866 37.5332 48.1753 37.8692 47.578C38.2145 46.9713 38.6812 46.5093 39.2692 46.192C39.8572 45.8653 40.5152 45.702 41.2432 45.702C41.9712 45.702 42.6292 45.8653 43.2172 46.192C43.8052 46.5093 44.2672 46.9667 44.6032 47.564C44.9485 48.1613 45.1212 48.8567 45.1212 49.65C45.1212 50.4433 44.9439 51.1433 44.5892 51.75C44.2439 52.3473 43.7725 52.8093 43.1752 53.136C42.5779 53.4627 41.9152 53.626 41.1872 53.626ZM41.1872 52.506C41.6445 52.506 42.0739 52.3987 42.4752 52.184C42.8765 51.9693 43.1985 51.6473 43.4412 51.218C43.6932 50.7887 43.8192 50.266 43.8192 49.65C43.8192 49.034 43.6979 48.5113 43.4552 48.082C43.2125 47.6527 42.8952 47.3353 42.5032 47.13C42.1112 46.9153 41.6865 46.808 41.2292 46.808C40.7625 46.808 40.3332 46.9153 39.9412 47.13C39.5585 47.3353 39.2505 47.6527 39.0172 48.082C38.7839 48.5113 38.6672 49.034 38.6672 49.65C38.6672 50.2753 38.7792 50.8027 39.0032 51.232C39.2365 51.6613 39.5445 51.9833 39.9272 52.198C40.3099 52.4033 40.7299 52.506 41.1872 52.506ZM48.1903 47.074C48.4143 46.6353 48.7316 46.2947 49.1423 46.052C49.5623 45.8093 50.0709 45.688 50.6683 45.688V47.004H50.3323C48.9043 47.004 48.1903 47.7787 48.1903 49.328V53.5H46.9163V45.828H48.1903V47.074ZM59.2589 49.37C59.2589 49.6127 59.2449 49.8693 59.2169 50.14H53.0849C53.1316 50.896 53.3883 51.4887 53.8549 51.918C54.3309 52.338 54.9049 52.548 55.5769 52.548C56.1276 52.548 56.5849 52.422 56.9489 52.17C57.3223 51.9087 57.5836 51.5633 57.7329 51.134H59.1049C58.8996 51.8713 58.4889 52.4733 57.8729 52.94C57.2569 53.3973 56.4916 53.626 55.5769 53.626C54.8489 53.626 54.1956 53.4627 53.6169 53.136C53.0476 52.8093 52.5996 52.3473 52.2729 51.75C51.9463 51.1433 51.7829 50.4433 51.7829 49.65C51.7829 48.8567 51.9416 48.1613 52.2589 47.564C52.5763 46.9667 53.0196 46.5093 53.5889 46.192C54.1676 45.8653 54.8303 45.702 55.5769 45.702C56.3049 45.702 56.9489 45.8607 57.5089 46.178C58.0689 46.4953 58.4983 46.934 58.7969 47.494C59.1049 48.0447 59.2589 48.67 59.2589 49.37ZM57.9429 49.104C57.9429 48.6187 57.8356 48.2033 57.6209 47.858C57.4063 47.5033 57.1123 47.2373 56.7389 47.06C56.3749 46.8733 55.9689 46.78 55.5209 46.78C54.8769 46.78 54.3263 46.9853 53.8689 47.396C53.4209 47.8067 53.1643 48.376 53.0989 49.104H57.9429Z" fill="#4E4B66"/>
<defs>
<clipPath id="clip0_1061_4933">
<rect width="24" height="24" fill="white" transform="translate(23 10.5)"/>
</clipPath>
</defs>
</svg>
