<svg width="16" height="17" viewBox="0 0 16 17" fill="none" xmlns="http://www.w3.org/2000/svg">
<g clip-path="url(#clip0_1061_1215)">
<path d="M7.99992 15.1667C4.31792 15.1667 1.33325 12.182 1.33325 8.5C1.33325 4.818 4.31792 1.83334 7.99992 1.83334C11.6819 1.83334 14.6666 4.818 14.6666 8.5C14.6666 12.182 11.6819 15.1667 7.99992 15.1667ZM7.99992 13.8333C9.41441 13.8333 10.771 13.2714 11.7712 12.2712C12.7713 11.271 13.3333 9.91449 13.3333 8.5C13.3333 7.08551 12.7713 5.72896 11.7712 4.72877C10.771 3.72857 9.41441 3.16667 7.99992 3.16667C6.58543 3.16667 5.22888 3.72857 4.22868 4.72877C3.22849 5.72896 2.66659 7.08551 2.66659 8.5C2.66659 9.91449 3.22849 11.271 4.22868 12.2712C5.22888 13.2714 6.58543 13.8333 7.99992 13.8333ZM7.33325 10.5H8.66659V11.8333H7.33325V10.5ZM7.33325 5.16667H8.66659V9.16667H7.33325V5.16667Z" fill="#C30052"/>
</g>
<defs>
<clipPath id="clip0_1061_1215">
<rect width="16" height="16" fill="white" transform="translate(0 0.5)"/>
</clipPath>
</defs>
</svg>
