<svg width="70" height="70" viewBox="0 0 70 70" fill="none" xmlns="http://www.w3.org/2000/svg">
<g clip-path="url(#clip0_1061_4928)">
<path d="M44 30.5C44 30.7652 43.8946 31.0196 43.7071 31.2071C43.5196 31.3947 43.2652 31.5 43 31.5H27C26.7348 31.5 26.4804 31.3947 26.2929 31.2071C26.1054 31.0196 26 30.7652 26 30.5V19.99C25.9999 19.8376 26.0346 19.6872 26.1015 19.5503C26.1684 19.4134 26.2657 19.2936 26.386 19.2L34.386 12.978C34.5615 12.8415 34.7776 12.7673 35 12.7673C35.2224 12.7673 35.4385 12.8415 35.614 12.978L43.614 19.2C43.7343 19.2936 43.8316 19.4134 43.8985 19.5503C43.9654 19.6872 44.0001 19.8376 44 19.99V30.5ZM34 23.5V29.5H36V23.5H34Z" fill="#1877F2"/>
</g>
<path d="M22.096 43.742V53.5H20.822V49.076H15.852V53.5H14.578V43.742H15.852V48.026H20.822V43.742H22.096ZM27.7374 53.626C27.0187 53.626 26.3654 53.4627 25.7774 53.136C25.1987 52.8093 24.7414 52.3473 24.4054 51.75C24.0787 51.1433 23.9154 50.4433 23.9154 49.65C23.9154 48.866 24.0834 48.1753 24.4194 47.578C24.7647 46.9713 25.2314 46.5093 25.8194 46.192C26.4074 45.8653 27.0654 45.702 27.7934 45.702C28.5214 45.702 29.1794 45.8653 29.7674 46.192C30.3554 46.5093 30.8174 46.9667 31.1534 47.564C31.4987 48.1613 31.6714 48.8567 31.6714 49.65C31.6714 50.4433 31.494 51.1433 31.1394 51.75C30.794 52.3473 30.3227 52.8093 29.7254 53.136C29.128 53.4627 28.4654 53.626 27.7374 53.626ZM27.7374 52.506C28.1947 52.506 28.624 52.3987 29.0254 52.184C29.4267 51.9693 29.7487 51.6473 29.9914 51.218C30.2434 50.7887 30.3694 50.266 30.3694 49.65C30.3694 49.034 30.248 48.5113 30.0054 48.082C29.7627 47.6527 29.4454 47.3353 29.0534 47.13C28.6614 46.9153 28.2367 46.808 27.7794 46.808C27.3127 46.808 26.8834 46.9153 26.4914 47.13C26.1087 47.3353 25.8007 47.6527 25.5674 48.082C25.334 48.5113 25.2174 49.034 25.2174 49.65C25.2174 50.2753 25.3294 50.8027 25.5534 51.232C25.7867 51.6613 26.0947 51.9833 26.4774 52.198C26.86 52.4033 27.28 52.506 27.7374 52.506ZM42.6924 45.688C43.2898 45.688 43.8218 45.814 44.2884 46.066C44.7551 46.3087 45.1238 46.6773 45.3944 47.172C45.6651 47.6667 45.8004 48.2687 45.8004 48.978V53.5H44.5404V49.16C44.5404 48.3947 44.3491 47.8113 43.9664 47.41C43.5931 46.9993 43.0844 46.794 42.4404 46.794C41.7778 46.794 41.2504 47.0087 40.8584 47.438C40.4664 47.858 40.2704 48.4693 40.2704 49.272V53.5H39.0104V49.16C39.0104 48.3947 38.8191 47.8113 38.4364 47.41C38.0631 46.9993 37.5544 46.794 36.9104 46.794C36.2478 46.794 35.7204 47.0087 35.3284 47.438C34.9364 47.858 34.7404 48.4693 34.7404 49.272V53.5H33.4664V45.828H34.7404V46.934C34.9924 46.5327 35.3284 46.2247 35.7484 46.01C36.1778 45.7953 36.6491 45.688 37.1624 45.688C37.8064 45.688 38.3758 45.8327 38.8704 46.122C39.3651 46.4113 39.7338 46.836 39.9764 47.396C40.1911 46.8547 40.5458 46.4347 41.0404 46.136C41.5351 45.8373 42.0858 45.688 42.6924 45.688ZM55.0103 49.37C55.0103 49.6127 54.9963 49.8693 54.9683 50.14H48.8363C48.8829 50.896 49.1396 51.4887 49.6063 51.918C50.0823 52.338 50.6563 52.548 51.3283 52.548C51.8789 52.548 52.3363 52.422 52.7003 52.17C53.0736 51.9087 53.3349 51.5633 53.4843 51.134H54.8563C54.6509 51.8713 54.2403 52.4733 53.6243 52.94C53.0083 53.3973 52.2429 53.626 51.3283 53.626C50.6003 53.626 49.9469 53.4627 49.3683 53.136C48.7989 52.8093 48.3509 52.3473 48.0243 51.75C47.6976 51.1433 47.5343 50.4433 47.5343 49.65C47.5343 48.8567 47.6929 48.1613 48.0103 47.564C48.3276 46.9667 48.7709 46.5093 49.3403 46.192C49.9189 45.8653 50.5816 45.702 51.3283 45.702C52.0563 45.702 52.7003 45.8607 53.2603 46.178C53.8203 46.4953 54.2496 46.934 54.5483 47.494C54.8563 48.0447 55.0103 48.67 55.0103 49.37ZM53.6943 49.104C53.6943 48.6187 53.5869 48.2033 53.3723 47.858C53.1576 47.5033 52.8636 47.2373 52.4903 47.06C52.1263 46.8733 51.7203 46.78 51.2723 46.78C50.6283 46.78 50.0776 46.9853 49.6203 47.396C49.1723 47.8067 48.9156 48.376 48.8503 49.104H53.6943Z" fill="#1877F2"/>
<defs>
<clipPath id="clip0_1061_4928">
<rect width="24" height="24" fill="white" transform="translate(23 10.5)"/>
</clipPath>
</defs>
</svg>
