<svg width="108" height="108" viewBox="0 0 108 108" fill="none" xmlns="http://www.w3.org/2000/svg">
<rect width="108" height="108" rx="10" fill="#1877F2"/>
<g clip-path="url(#clip0_945_6836)">
<path d="M80.25 91.5H27.75C24.7663 91.5 21.9048 90.3147 19.795 88.205C17.6853 86.0952 16.5 83.2337 16.5 80.25V20.25C16.5 19.2554 16.8951 18.3016 17.5983 17.5983C18.3016 16.8951 19.2554 16.5 20.25 16.5H72.75C73.7446 16.5 74.6984 16.8951 75.4017 17.5983C76.1049 18.3016 76.5 19.2554 76.5 20.25V65.25H91.5V80.25C91.5 83.2337 90.3147 86.0952 88.205 88.205C86.0952 90.3147 83.2337 91.5 80.25 91.5ZM76.5 72.75V80.25C76.5 81.2446 76.8951 82.1984 77.5983 82.9017C78.3016 83.6049 79.2554 84 80.25 84C81.2446 84 82.1984 83.6049 82.9017 82.9017C83.6049 82.1984 84 81.2446 84 80.25V72.75H76.5ZM69 84V24H24V80.25C24 81.2446 24.3951 82.1984 25.0984 82.9017C25.8016 83.6049 26.7554 84 27.75 84H69ZM31.5 35.25H61.5V42.75H31.5V35.25ZM31.5 50.25H61.5V57.75H31.5V50.25ZM31.5 65.25H50.25V72.75H31.5V65.25Z" fill="white"/>
</g>
<defs>
<clipPath id="clip0_945_6836">
<rect width="90" height="90" fill="white" transform="translate(9 9)"/>
</clipPath>
</defs>
</svg>
