<svg width="70" height="70" viewBox="0 0 70 70" fill="none" xmlns="http://www.w3.org/2000/svg">
<g clip-path="url(#clip0_1061_4945)">
<path d="M35 32.5C29.477 32.5 25 28.023 25 22.5C25 16.977 29.477 12.5 35 12.5C40.523 12.5 45 16.977 45 22.5C45 28.023 40.523 32.5 35 32.5ZM30.013 28.756C31.4285 29.8877 33.1877 30.5029 35 30.5C36.97 30.5 38.773 29.788 40.167 28.608C39.5157 27.9397 38.7371 27.4089 37.877 27.0468C37.017 26.6847 36.0931 26.4988 35.16 26.5C34.1926 26.4989 33.2355 26.6989 32.3495 27.0872C31.4634 27.4756 30.6678 28.0439 30.013 28.756ZM28.616 27.32C29.4565 26.4281 30.4707 25.7177 31.5961 25.2327C32.7216 24.7477 33.9345 24.4984 35.16 24.5C36.3417 24.4985 37.512 24.7304 38.6037 25.1824C39.6955 25.6344 40.6873 26.2976 41.522 27.134C42.3781 25.9291 42.8836 24.5106 42.9826 23.0359C43.0815 21.5612 42.77 20.0879 42.0825 18.7795C41.395 17.471 40.3585 16.3786 39.088 15.6234C37.8174 14.8683 36.3625 14.4798 34.8846 14.5013C33.4067 14.5227 31.9637 14.9531 30.7155 15.7448C29.4674 16.5364 28.463 17.6584 27.8137 18.9862C27.1644 20.314 26.8957 21.7957 27.0373 23.2669C27.1789 24.7382 27.7254 26.1414 28.616 27.321V27.32ZM35 23.5C33.9391 23.5 32.9217 23.0786 32.1716 22.3284C31.4214 21.5783 31 20.5609 31 19.5C31 18.4391 31.4214 17.4217 32.1716 16.6716C32.9217 15.9214 33.9391 15.5 35 15.5C36.0609 15.5 37.0783 15.9214 37.8284 16.6716C38.5786 17.4217 39 18.4391 39 19.5C39 20.5609 38.5786 21.5783 37.8284 22.3284C37.0783 23.0786 36.0609 23.5 35 23.5ZM35 21.5C35.5304 21.5 36.0391 21.2893 36.4142 20.9142C36.7893 20.5391 37 20.0304 37 19.5C37 18.9696 36.7893 18.4609 36.4142 18.0858C36.0391 17.7107 35.5304 17.5 35 17.5C34.4696 17.5 33.9609 17.7107 33.5858 18.0858C33.2107 18.4609 33 18.9696 33 19.5C33 20.0304 33.2107 20.5391 33.5858 20.9142C33.9609 21.2893 34.4696 21.5 35 21.5Z" fill="#4E4B66"/>
</g>
<path d="M20.602 46.598C20.602 47.41 20.322 48.0867 19.762 48.628C19.2113 49.16 18.3667 49.426 17.228 49.426H15.352V53.5H14.078V43.742H17.228C18.3293 43.742 19.1647 44.008 19.734 44.54C20.3127 45.072 20.602 45.758 20.602 46.598ZM17.228 48.376C17.9373 48.376 18.46 48.222 18.796 47.914C19.132 47.606 19.3 47.1673 19.3 46.598C19.3 45.394 18.6093 44.792 17.228 44.792H15.352V48.376H17.228ZM23.5794 47.074C23.8034 46.6353 24.1208 46.2947 24.5314 46.052C24.9514 45.8093 25.4601 45.688 26.0574 45.688V47.004H25.7214C24.2934 47.004 23.5794 47.7787 23.5794 49.328V53.5H22.3054V45.828H23.5794V47.074ZM30.9941 53.626C30.2754 53.626 29.6221 53.4627 29.0341 53.136C28.4554 52.8093 27.9981 52.3473 27.6621 51.75C27.3354 51.1433 27.1721 50.4433 27.1721 49.65C27.1721 48.866 27.3401 48.1753 27.6761 47.578C28.0214 46.9713 28.4881 46.5093 29.0761 46.192C29.6641 45.8653 30.3221 45.702 31.0501 45.702C31.7781 45.702 32.4361 45.8653 33.0241 46.192C33.6121 46.5093 34.0741 46.9667 34.4101 47.564C34.7554 48.1613 34.9281 48.8567 34.9281 49.65C34.9281 50.4433 34.7507 51.1433 34.3961 51.75C34.0507 52.3473 33.5794 52.8093 32.9821 53.136C32.3847 53.4627 31.7221 53.626 30.9941 53.626ZM30.9941 52.506C31.4514 52.506 31.8807 52.3987 32.2821 52.184C32.6834 51.9693 33.0054 51.6473 33.2481 51.218C33.5001 50.7887 33.6261 50.266 33.6261 49.65C33.6261 49.034 33.5047 48.5113 33.2621 48.082C33.0194 47.6527 32.7021 47.3353 32.3101 47.13C31.9181 46.9153 31.4934 46.808 31.0361 46.808C30.5694 46.808 30.1401 46.9153 29.7481 47.13C29.3654 47.3353 29.0574 47.6527 28.8241 48.082C28.5907 48.5113 28.4741 49.034 28.4741 49.65C28.4741 50.2753 28.5861 50.8027 28.8101 51.232C29.0434 51.6613 29.3514 51.9833 29.7341 52.198C30.1167 52.4033 30.5367 52.506 30.9941 52.506ZM39.8452 46.878H38.2352V53.5H36.9612V46.878H35.9672V45.828H36.9612V45.282C36.9612 44.4233 37.1805 43.798 37.6192 43.406C38.0672 43.0047 38.7812 42.804 39.7612 42.804V43.868C39.2012 43.868 38.8045 43.98 38.5712 44.204C38.3472 44.4187 38.2352 44.778 38.2352 45.282V45.828H39.8452V46.878ZM42.1086 44.582C41.8659 44.582 41.6606 44.498 41.4926 44.33C41.3246 44.162 41.2406 43.9567 41.2406 43.714C41.2406 43.4713 41.3246 43.266 41.4926 43.098C41.6606 42.93 41.8659 42.846 42.1086 42.846C42.3419 42.846 42.5379 42.93 42.6966 43.098C42.8646 43.266 42.9486 43.4713 42.9486 43.714C42.9486 43.9567 42.8646 44.162 42.6966 44.33C42.5379 44.498 42.3419 44.582 42.1086 44.582ZM42.7246 45.828V53.5H41.4506V45.828H42.7246ZM46.2899 43.14V53.5H45.0159V43.14H46.2899ZM55.5812 49.37C55.5812 49.6127 55.5672 49.8693 55.5392 50.14H49.4072C49.4539 50.896 49.7105 51.4887 50.1772 51.918C50.6532 52.338 51.2272 52.548 51.8992 52.548C52.4499 52.548 52.9072 52.422 53.2712 52.17C53.6445 51.9087 53.9059 51.5633 54.0552 51.134H55.4272C55.2219 51.8713 54.8112 52.4733 54.1952 52.94C53.5792 53.3973 52.8139 53.626 51.8992 53.626C51.1712 53.626 50.5179 53.4627 49.9392 53.136C49.3699 52.8093 48.9219 52.3473 48.5952 51.75C48.2685 51.1433 48.1052 50.4433 48.1052 49.65C48.1052 48.8567 48.2639 48.1613 48.5812 47.564C48.8985 46.9667 49.3419 46.5093 49.9112 46.192C50.4899 45.8653 51.1525 45.702 51.8992 45.702C52.6272 45.702 53.2712 45.8607 53.8312 46.178C54.3912 46.4953 54.8205 46.934 55.1192 47.494C55.4272 48.0447 55.5812 48.67 55.5812 49.37ZM54.2652 49.104C54.2652 48.6187 54.1579 48.2033 53.9432 47.858C53.7285 47.5033 53.4345 47.2373 53.0612 47.06C52.6972 46.8733 52.2912 46.78 51.8432 46.78C51.1992 46.78 50.6485 46.9853 50.1912 47.396C49.7432 47.8067 49.4865 48.376 49.4212 49.104H54.2652Z" fill="#4E4B66"/>
<defs>
<clipPath id="clip0_1061_4945">
<rect width="24" height="24" fill="white" transform="translate(23 10.5)"/>
</clipPath>
</defs>
</svg>
