<?xml version="1.0" encoding="UTF-8" standalone="no"?>
<!DOCTYPE svg PUBLIC "-//W3C//DTD SVG 1.1//EN" "http://www.w3.org/Graphics/SVG/1.1/DTD/svg11.dtd">
<svg xmlns="http://www.w3.org/2000/svg" version="1.1" viewBox="0.00 0.00 108.00 108.00">
<g stroke-width="2.00" fill="none" stroke-linecap="butt">
<path stroke="#8cbbf9" vector-effect="non-scaling-stroke" d="
  M 76.50 64.75
  L 76.50 20.00
  A 3.50 3.50 0.0 0 0 73.00 16.50
  L 20.02 16.50
  A 3.52 3.52 0.0 0 0 16.50 20.02
  Q 16.50 49.15 16.50 77.91
  C 16.51 83.55 17.64 87.92 22.72 90.29
  Q 25.35 91.51 32.45 91.51
  Q 55.39 91.50 78.34 91.49
  C 83.70 91.49 87.78 90.25 90.16 85.56
  C 92.48 80.97 91.51 71.63 91.49 65.75
  Q 91.49 65.25 90.99 65.25
  L 77.00 65.25
  Q 76.50 65.25 76.50 64.75"
/>
<path stroke="#8cbbf9" vector-effect="non-scaling-stroke" d="
  M 27.38 84.00
  L 68.50 84.00
  Q 69.00 84.00 69.00 83.50
  L 69.00 24.50
  Q 69.00 24.00 68.50 24.00
  L 24.50 24.00
  Q 24.00 24.00 24.00 24.50
  L 24.00 80.62
  A 3.38 3.38 0.0 0 0 27.38 84.00"
/>
<path stroke="#8cbbf9" vector-effect="non-scaling-stroke" d="
  M 83.61 72.74
  L 76.89 72.74
  A 0.41 0.41 0.0 0 0 76.48 73.15
  L 76.48 80.14
  A 3.86 3.70 -90.0 0 0 80.18 84.00
  L 80.32 84.00
  A 3.86 3.70 90.0 0 0 84.02 80.14
  L 84.02 73.15
  A 0.41 0.41 0.0 0 0 83.61 72.74"
/>
<path stroke="#8cbbf9" vector-effect="non-scaling-stroke" d="
  M 61.50 35.54
  A 0.29 0.29 0.0 0 0 61.21 35.25
  L 31.79 35.25
  A 0.29 0.29 0.0 0 0 31.50 35.54
  L 31.50 42.46
  A 0.29 0.29 0.0 0 0 31.79 42.75
  L 61.21 42.75
  A 0.29 0.29 0.0 0 0 61.50 42.46
  L 61.50 35.54"
/>
<path stroke="#8cbbf9" vector-effect="non-scaling-stroke" d="
  M 61.50 50.53
  A 0.28 0.28 0.0 0 0 61.22 50.25
  L 31.78 50.25
  A 0.28 0.28 0.0 0 0 31.50 50.53
  L 31.50 57.47
  A 0.28 0.28 0.0 0 0 31.78 57.75
  L 61.22 57.75
  A 0.28 0.28 0.0 0 0 61.50 57.47
  L 61.50 50.53"
/>
<path stroke="#8cbbf9" vector-effect="non-scaling-stroke" d="
  M 50.2660 65.5764
  A 0.31 0.31 0.0 0 0 49.9565 65.2658
  L 31.8166 65.2342
  A 0.31 0.31 0.0 0 0 31.5060 65.5436
  L 31.4940 72.4236
  A 0.31 0.31 0.0 0 0 31.8035 72.7342
  L 49.9434 72.7658
  A 0.31 0.31 0.0 0 0 50.2540 72.4564
  L 50.2660 65.5764"
/>
</g>
<path fill="#1877f2" d="
  M 8.62 0.00
  L 99.25 0.00
  Q 106.46 1.58 108.00 8.62
  L 108.00 99.23
  Q 106.43 106.47 99.38 108.00
  L 8.76 108.00
  Q 1.53 106.43 0.00 99.38
  L 0.00 8.76
  Q 1.57 1.55 8.62 0.00
  Z
  M 76.50 64.75
  L 76.50 20.00
  A 3.50 3.50 0.0 0 0 73.00 16.50
  L 20.02 16.50
  A 3.52 3.52 0.0 0 0 16.50 20.02
  Q 16.50 49.15 16.50 77.91
  C 16.51 83.55 17.64 87.92 22.72 90.29
  Q 25.35 91.51 32.45 91.51
  Q 55.39 91.50 78.34 91.49
  C 83.70 91.49 87.78 90.25 90.16 85.56
  C 92.48 80.97 91.51 71.63 91.49 65.75
  Q 91.49 65.25 90.99 65.25
  L 77.00 65.25
  Q 76.50 65.25 76.50 64.75
  Z"
/>
<path fill="#ffffff" d="
  M 77.00 65.25
  L 90.99 65.25
  Q 91.49 65.25 91.49 65.75
  C 91.51 71.63 92.48 80.97 90.16 85.56
  C 87.78 90.25 83.70 91.49 78.34 91.49
  Q 55.39 91.50 32.45 91.51
  Q 25.35 91.51 22.72 90.29
  C 17.64 87.92 16.51 83.55 16.50 77.91
  Q 16.50 49.15 16.50 20.02
  A 3.52 3.52 0.0 0 1 20.02 16.50
  L 73.00 16.50
  A 3.50 3.50 0.0 0 1 76.50 20.00
  L 76.50 64.75
  Q 76.50 65.25 77.00 65.25
  Z
  M 27.38 84.00
  L 68.50 84.00
  Q 69.00 84.00 69.00 83.50
  L 69.00 24.50
  Q 69.00 24.00 68.50 24.00
  L 24.50 24.00
  Q 24.00 24.00 24.00 24.50
  L 24.00 80.62
  A 3.38 3.38 0.0 0 0 27.38 84.00
  Z
  M 83.61 72.74
  L 76.89 72.74
  A 0.41 0.41 0.0 0 0 76.48 73.15
  L 76.48 80.14
  A 3.86 3.70 -90.0 0 0 80.18 84.00
  L 80.32 84.00
  A 3.86 3.70 90.0 0 0 84.02 80.14
  L 84.02 73.15
  A 0.41 0.41 0.0 0 0 83.61 72.74
  Z"
/>
<path fill="#1877f2" d="
  M 27.38 84.00
  A 3.38 3.38 0.0 0 1 24.00 80.62
  L 24.00 24.50
  Q 24.00 24.00 24.50 24.00
  L 68.50 24.00
  Q 69.00 24.00 69.00 24.50
  L 69.00 83.50
  Q 69.00 84.00 68.50 84.00
  L 27.38 84.00
  Z
  M 61.50 35.54
  A 0.29 0.29 0.0 0 0 61.21 35.25
  L 31.79 35.25
  A 0.29 0.29 0.0 0 0 31.50 35.54
  L 31.50 42.46
  A 0.29 0.29 0.0 0 0 31.79 42.75
  L 61.21 42.75
  A 0.29 0.29 0.0 0 0 61.50 42.46
  L 61.50 35.54
  Z
  M 61.50 50.53
  A 0.28 0.28 0.0 0 0 61.22 50.25
  L 31.78 50.25
  A 0.28 0.28 0.0 0 0 31.50 50.53
  L 31.50 57.47
  A 0.28 0.28 0.0 0 0 31.78 57.75
  L 61.22 57.75
  A 0.28 0.28 0.0 0 0 61.50 57.47
  L 61.50 50.53
  Z
  M 50.2660 65.5764
  A 0.31 0.31 0.0 0 0 49.9565 65.2658
  L 31.8166 65.2342
  A 0.31 0.31 0.0 0 0 31.5060 65.5436
  L 31.4940 72.4236
  A 0.31 0.31 0.0 0 0 31.8035 72.7342
  L 49.9434 72.7658
  A 0.31 0.31 0.0 0 0 50.2540 72.4564
  L 50.2660 65.5764
  Z"
/>
<rect fill="#ffffff" x="31.50" y="35.25" width="30.00" height="7.50" rx="0.29"/>
<rect fill="#ffffff" x="31.50" y="50.25" width="30.00" height="7.50" rx="0.28"/>
<rect fill="#ffffff" x="-9.38" y="-3.75" transform="translate(40.88,69.00) rotate(0.1)" width="18.76" height="7.50" rx="0.31"/>
<path fill="#1877f2" d="
  M 83.61 72.74
  A 0.41 0.41 0.0 0 1 84.02 73.15
  L 84.02 80.14
  A 3.86 3.70 90.0 0 1 80.32 84.00
  L 80.18 84.00
  A 3.86 3.70 -90.0 0 1 76.48 80.14
  L 76.48 73.15
  A 0.41 0.41 0.0 0 1 76.89 72.74
  L 83.61 72.74
  Z"
/>
</svg>
