<svg width="315" height="173" viewBox="0 0 315 173" fill="none" xmlns="http://www.w3.org/2000/svg">
<path d="M49 117.3V73.2055H57.8561V92.7863L75.7478 73.2055H87.6557L71.1402 90.3801L88.5532 117.3H77.0942L65.0367 96.6063L57.8561 103.975V117.3H49Z" fill="#1877F2"/>
<path d="M103.248 95.1023L95.6185 93.7188C96.4761 90.6307 97.9522 88.3448 100.047 86.8609C102.141 85.3771 105.252 84.6352 109.381 84.6352C113.131 84.6352 115.924 85.0863 117.759 85.9887C119.594 86.871 120.88 88.0039 121.618 89.3875C122.376 90.751 122.755 93.2676 122.755 96.9371L122.665 106.803C122.665 109.61 122.795 111.685 123.054 113.029C123.334 114.352 123.842 115.776 124.58 117.3H116.263C116.043 116.739 115.774 115.906 115.455 114.804C115.315 114.302 115.216 113.971 115.156 113.811C113.72 115.215 112.184 116.267 110.548 116.969C108.913 117.671 107.167 118.022 105.312 118.022C102.041 118.022 99.4581 117.13 97.5632 115.345C95.6883 113.56 94.7508 111.304 94.7508 108.577C94.7508 106.773 95.1796 105.168 96.0373 103.765C96.895 102.341 98.0918 101.258 99.6276 100.516C101.183 99.7544 103.417 99.0927 106.33 98.5312C110.259 97.7893 112.982 97.0975 114.498 96.4559V95.6137C114.498 93.9895 114.099 92.8365 113.301 92.1547C112.503 91.4529 110.997 91.102 108.783 91.102C107.287 91.102 106.12 91.4027 105.282 92.0043C104.445 92.5858 103.766 93.6185 103.248 95.1023ZM114.498 101.96C113.42 102.321 111.715 102.752 109.381 103.254C107.048 103.755 105.522 104.246 104.804 104.727C103.707 105.509 103.158 106.502 103.158 107.705C103.158 108.888 103.597 109.911 104.475 110.773C105.352 111.635 106.469 112.066 107.826 112.066C109.341 112.066 110.788 111.565 112.164 110.562C113.181 109.801 113.849 108.868 114.168 107.765C114.388 107.043 114.498 105.67 114.498 103.645V101.96Z" fill="#1877F2"/>
<path d="M189.95 119.5H143.994C141.382 119.5 138.877 118.457 137.03 116.6C135.183 114.744 134.146 112.226 134.146 109.6V56.8C134.146 55.9248 134.492 55.0854 135.107 54.4665C135.723 53.8477 136.558 53.5 137.428 53.5H183.384C184.255 53.5 185.09 53.8477 185.706 54.4665C186.321 55.0854 186.667 55.9248 186.667 56.8V96.4H199.797V109.6C199.797 112.226 198.76 114.744 196.913 116.6C195.066 118.457 192.561 119.5 189.95 119.5ZM186.667 103V109.6C186.667 110.475 187.013 111.315 187.628 111.933C188.244 112.552 189.079 112.9 189.95 112.9C190.82 112.9 191.655 112.552 192.271 111.933C192.886 111.315 193.232 110.475 193.232 109.6V103H186.667ZM180.102 112.9V60.1H140.711V109.6C140.711 110.475 141.057 111.315 141.672 111.933C142.288 112.552 143.123 112.9 143.994 112.9H180.102ZM147.276 70H173.537V76.6H147.276V70ZM147.276 83.2H173.537V89.8H147.276V83.2ZM147.276 96.4H163.689V103H147.276V96.4Z" fill="#1877F2"/>
<path d="M217.044 95.1023L209.414 93.7188C210.272 90.6307 211.748 88.3448 213.842 86.8609C215.937 85.3771 219.048 84.6352 223.177 84.6352C226.927 84.6352 229.719 85.0863 231.554 85.9887C233.389 86.871 234.676 88.0039 235.414 89.3875C236.172 90.751 236.551 93.2676 236.551 96.9371L236.461 106.803C236.461 109.61 236.591 111.685 236.85 113.029C237.129 114.352 237.638 115.776 238.376 117.3H230.058C229.839 116.739 229.57 115.906 229.251 114.804C229.111 114.302 229.011 113.971 228.951 113.811C227.515 115.215 225.979 116.267 224.344 116.969C222.708 117.671 220.963 118.022 219.108 118.022C215.837 118.022 213.254 117.13 211.359 115.345C209.484 113.56 208.547 111.304 208.547 108.577C208.547 106.773 208.975 105.168 209.833 103.765C210.691 102.341 211.887 101.258 213.423 100.516C214.979 99.7544 217.213 99.0927 220.125 98.5312C224.055 97.7893 226.777 97.0975 228.293 96.4559V95.6137C228.293 93.9895 227.894 92.8365 227.096 92.1547C226.299 91.4529 224.793 91.102 222.579 91.102C221.083 91.102 219.916 91.4027 219.078 92.0043C218.24 92.5858 217.562 93.6185 217.044 95.1023ZM228.293 101.96C227.216 102.321 225.511 102.752 223.177 103.254C220.843 103.755 219.317 104.246 218.599 104.727C217.502 105.509 216.954 106.502 216.954 107.705C216.954 108.888 217.393 109.911 218.27 110.773C219.148 111.635 220.265 112.066 221.621 112.066C223.137 112.066 224.583 111.565 225.96 110.562C226.977 109.801 227.645 108.868 227.964 107.765C228.184 107.043 228.293 105.67 228.293 103.645V101.96Z" fill="#1877F2"/>
<path d="M253.823 117.3H245.416V85.357H253.224V89.8988C254.561 87.7533 255.758 86.3396 256.815 85.6578C257.892 84.976 259.109 84.6352 260.465 84.6352C262.38 84.6352 264.225 85.1665 266 86.2293L263.397 93.5984C261.981 92.676 260.664 92.2148 259.448 92.2148C258.271 92.2148 257.274 92.5457 256.456 93.2074C255.638 93.8491 254.99 95.0221 254.511 96.7266C254.052 98.431 253.823 102 253.823 107.434V117.3Z" fill="#1877F2"/>
</svg>
