<svg width="71" height="70" viewBox="0 0 71 70" fill="none" xmlns="http://www.w3.org/2000/svg">
<mask id="mask0_1061_927" style="mask-type:alpha" maskUnits="userSpaceOnUse" x="0" y="0" width="71" height="70">
<circle cx="35.5" cy="35" r="35" fill="#CC0000"/>
</mask>
<g mask="url(#mask0_1061_927)">
<circle cx="35.5" cy="35" r="35" fill="#CC0000"/>
<circle cx="35.5" cy="35" r="25" fill="white"/>
<path d="M6.5 6V64H64.5V6H6.5ZM27.3389 38.712V28.3735C27.3389 24.4827 32.368 22.6146 35.0288 27.1362C35.2221 27.4624 39.4126 34.681 39.4126 34.681V28.3735C39.4126 24.4827 44.4393 22.6146 47.1 27.1362C47.2933 27.4624 51.4838 34.681 51.4838 34.681V24.5745H53.9923V41.5419C53.9987 41.6566 53.9661 41.7701 53.8998 41.864C53.8336 41.9578 53.7376 42.0266 53.6274 42.0591C53.3616 42.1316 53.0813 41.9673 52.8758 41.6193C52.8348 41.5516 50.7008 37.8831 48.6515 34.3378L44.8912 27.8636C44.3643 26.9694 43.5789 26.8123 43.0207 26.9646C42.699 27.0546 42.4165 27.249 42.2174 27.5171C42.0183 27.7853 41.9141 28.1121 41.9211 28.446V41.5419C41.927 41.6565 41.8942 41.7698 41.828 41.8636C41.7619 41.9574 41.6661 42.0262 41.5562 42.0591C41.2879 42.1316 41.0076 41.9673 40.8046 41.6193C40.7683 41.5588 38.7891 38.1489 36.8775 34.8526C34.4415 30.6524 32.8417 27.8974 32.8175 27.8563C32.2907 26.9598 31.5028 26.8051 30.9398 26.9573C30.6179 27.0472 30.335 27.2415 30.1355 27.5097C29.9361 27.7778 29.8313 28.1046 29.8378 28.4388V41.2592C29.8269 41.4297 29.754 41.5904 29.633 41.711C29.5119 41.8316 29.351 41.9038 29.1804 41.9141H22.6723C20.8367 41.9141 19.0762 41.1849 17.7782 39.8869C16.4802 38.5889 15.751 36.8284 15.751 34.9928C15.751 33.1571 16.4802 31.3966 17.7782 30.0986C19.0762 28.8006 20.8367 28.0714 22.6723 28.0714H26.0557V30.5751H22.7013C21.5297 30.5751 20.406 31.0405 19.5776 31.869C18.7491 32.6975 18.2837 33.8211 18.2837 34.9928C18.2837 36.1644 18.7491 37.288 19.5776 38.1165C20.406 38.945 21.5297 39.4104 22.7013 39.4104H26.6478C26.7393 39.4111 26.8301 39.3934 26.9147 39.3585C26.9993 39.3235 27.0761 39.272 27.1405 39.2069C27.2049 39.1418 27.2557 39.0645 27.2897 38.9795C27.3238 38.8945 27.3405 38.8036 27.3389 38.712ZM57.4917 41.6241C57.4917 45.5149 52.4626 47.383 49.8018 42.8638C49.6109 42.5376 45.418 35.3166 45.418 35.3166V41.6241C45.418 45.5149 40.3913 47.383 37.7306 42.8638C37.5373 42.5376 33.3468 35.3166 33.3468 35.3166V41.264C33.3468 43.9634 31.7445 45.4255 29.2384 45.4255H22.6772C19.9122 45.4255 17.2604 44.3271 15.3052 42.3719C13.3501 40.4168 12.2517 37.765 12.2517 35C12.2517 32.235 13.3501 29.5832 15.3052 27.6281C17.2604 25.6729 19.9122 24.5745 22.6772 24.5745H26.0605V27.0782H22.6772C21.6369 27.0782 20.6067 27.2831 19.6456 27.6812C18.6845 28.0793 17.8112 28.6628 17.0756 29.3984C16.34 30.134 15.7565 31.0073 15.3583 31.9685C14.9602 32.9296 14.7553 33.9597 14.7553 35C14.7553 36.0403 14.9602 37.0704 15.3583 38.0316C15.7565 38.9927 16.34 39.866 17.0756 40.6016C17.8112 41.3372 18.6845 41.9207 19.6456 42.3188C20.6067 42.7169 21.6369 42.9218 22.6772 42.9218H29.1804C29.617 42.9132 30.0333 42.7361 30.3423 42.4276C30.6513 42.119 30.829 41.703 30.8383 41.2664V28.446C30.8321 28.3316 30.8647 28.2185 30.931 28.125C30.9972 28.0316 31.0932 27.9633 31.2032 27.9313C31.469 27.8588 31.7493 28.0231 31.9548 28.3711L36.0123 35.3625C38.371 39.4298 39.9201 42.1002 39.9394 42.1292C40.4687 43.0233 41.2565 43.1804 41.8196 43.0258C42.1414 42.9356 42.424 42.7407 42.6227 42.472C42.8214 42.2033 42.9249 41.876 42.9168 41.5419V28.4484C42.9101 28.3343 42.942 28.2213 43.0073 28.1276C43.0726 28.0338 43.1676 27.9646 43.2768 27.9313C43.5403 27.8588 43.8182 28.0231 44.0212 28.3711L52.0083 42.1364C52.4215 42.8373 52.9967 43.0862 53.4969 43.0862C53.6284 43.0862 53.7593 43.0683 53.886 43.033C54.212 42.9453 54.499 42.7507 54.7011 42.4803C54.9031 42.2098 55.0084 41.8794 55.0001 41.5419V24.5745H57.4989L57.4917 41.6241Z" fill="#CC0000"/>
</g>
</svg>
