<svg width="71" height="70" viewBox="0 0 71 70" fill="none" xmlns="http://www.w3.org/2000/svg">
<path d="M70.5 35C70.5 54.33 54.83 70 35.5 70C16.17 70 0.5 54.33 0.5 35C0.5 15.67 16.17 0 35.5 0C54.83 0 70.5 15.67 70.5 35Z" fill="#005994"/>
<path fill-rule="evenodd" clip-rule="evenodd" d="M19.5784 47.2473C19.3992 46.4192 18.68 46.2004 17.8771 46.1299C15.2811 45.9012 14.8198 47.7366 14.8198 48.5108C14.8198 49.8357 15.2293 50.9294 17.7815 50.9294C18.2495 50.9294 19.5466 50.4742 19.5466 49.7302H23.2125C23.0662 51.9349 19.1437 52.4619 17.4357 52.4619C13.892 52.4619 10.8589 51.8396 11.0052 48.5409C11.1088 46.1878 13.4639 44.5335 18.1469 44.6351C20.7576 44.6944 23.2629 45.4636 23.2762 47.2473H19.5784Z" fill="white"/>
<path fill-rule="evenodd" clip-rule="evenodd" d="M56.3047 47.2473C56.1213 46.4192 55.4034 46.2004 54.6009 46.1299C52.006 45.9012 51.5461 47.7366 51.5461 48.5108C51.5461 49.8357 51.9528 50.9294 54.5025 50.9294C54.9729 50.9294 56.2714 50.4742 56.2714 49.7302H59.9387C59.79 51.9349 55.8686 52.4619 54.1595 52.4619C50.6158 52.4619 47.5813 51.8396 47.7272 48.5409C47.8322 46.1878 50.1877 44.5335 54.8718 44.6351C57.4796 44.6944 59.9895 45.4636 60 47.2473H56.3047Z" fill="white"/>
<path fill-rule="evenodd" clip-rule="evenodd" d="M23.9329 44.7949H28.6915L32.7508 50.1765H32.783V44.7949H35.8347V52.2668H31.2756L27.0129 46.8865H26.9821V52.2668H23.9329V44.7949Z" fill="white"/>
<path fill-rule="evenodd" clip-rule="evenodd" d="M40.123 50.7017H41.0799C42.861 50.7017 43.5152 50.5233 43.5152 49.9437C43.5152 49.3215 42.6909 49.1166 41.3616 49.1166H40.123V50.7017ZM40.123 47.695H41.0799C42.5579 47.695 43.3395 47.588 43.3395 47.0075C43.3395 46.3902 42.6909 46.1803 41.3616 46.1803H40.123V47.695ZM36.7773 44.7947H42.5579C45.3362 44.7947 46.9711 45.5276 46.9711 46.6351C46.9711 47.2915 46.2865 48.0984 44.7591 48.3371V48.3599C46.5976 48.4605 47.2742 49.5565 47.2742 50.2138C47.2742 51.5329 45.6845 52.267 42.5737 52.267H36.7773V44.7947ZM35.4441 20.3026C36.0608 19.3537 37.0818 18.359 38.1822 17.938C40.075 17.1231 42.6139 17.4723 44.1584 18.7622C45.6536 20.0435 46.4128 21.7984 46.0512 23.7612C46.4233 23.698 46.7901 23.4742 47.1782 23.3488C49.5019 22.7312 51.9529 23.4024 53.4415 25.2828C54.558 26.628 54.8506 28.7146 54.1807 30.3362C53.8471 31.1508 53.2794 31.8849 52.5406 32.5125L52.6176 32.584C54.776 32.6819 56.8977 34.2681 57.5519 36.2117C58.2613 38.1725 57.6366 40.2694 56.1214 41.7023C54.88 42.8588 53.2875 43.2613 51.5168 43.2262H19.3711C16.7286 43.2815 14.6898 42.1753 13.5915 39.9553C12.7305 38.0481 13.1558 35.6109 14.7668 34.1602C15.7808 33.1573 17.0488 32.7448 18.425 32.5386C16.8696 31.1782 16.1227 29.3144 16.5585 27.3168C16.8696 25.6952 18.3291 24.0561 20.0039 23.4925C21.4819 22.9367 23.4811 23.0353 24.837 23.787L24.8836 23.7341C24.4755 21.53 25.5069 19.5407 27.4407 18.3239C29.1648 17.2214 31.9189 17.2478 33.6059 18.4219C34.3647 18.8615 34.9895 19.6135 35.4441 20.3026Z" fill="white"/>
<path fill-rule="evenodd" clip-rule="evenodd" d="M44.5465 21.1272C44.2914 20.5443 43.8448 20.026 43.3142 19.5778C42.0076 18.5199 39.8863 18.2962 38.3788 19.1207C36.9396 19.8462 36.0874 21.2252 36.0769 22.721L36.1353 22.7756L38.0201 22.7938C38.145 22.8742 38.3417 22.8643 38.3788 23.0354C37.6134 23.5908 36.3054 24.084 36.4661 25.2379L38.4852 37.2776L38.5332 37.225L44.1104 25.3557C44.8307 24.1727 45.2378 22.4446 44.5465 21.1272Z" fill="#645FA9"/>
<path fill-rule="evenodd" clip-rule="evenodd" d="M32.5556 37.2061L34.8271 23.4201C34.9895 22.4168 34.7249 21.5119 34.2692 20.7148C33.7771 19.9456 32.9822 19.317 32.1475 18.9777C30.5735 18.3502 28.596 18.6633 27.3941 19.8198C26.1978 20.9303 25.7075 22.5515 26.2363 24.1013L31.9403 36.14L32.5252 37.2502C32.5465 37.2425 32.5636 37.225 32.5556 37.2061Z" fill="#C8234A"/>
<path fill-rule="evenodd" clip-rule="evenodd" d="M52.797 26.5198C53.5638 27.7554 53.3937 29.6272 52.5404 30.7738C52.0112 31.5808 51.1394 31.983 50.4002 32.5122L38.5877 40.1791H38.5597L38.6927 39.812L44.9531 26.448C45.8918 24.8715 47.6821 24.0734 49.5763 24.3164C50.8734 24.5401 52.1708 25.3385 52.797 26.5198Z" fill="#0088CF"/>
<path fill-rule="evenodd" clip-rule="evenodd" d="M19.2382 31.616L32.3765 40.179H32.4787L25.9641 26.4482C24.8634 24.6025 22.5345 23.8412 20.4691 24.5585C19.2091 25.0063 18.1483 26.135 17.8081 27.3445C17.352 28.9561 17.9036 30.5499 19.2382 31.616Z" fill="#F26F21"/>
<path fill-rule="evenodd" clip-rule="evenodd" d="M55.6853 40.423C56.6223 39.3119 56.8788 37.5192 56.225 36.2118C55.7984 35.3167 54.8891 34.4191 53.9241 34.0622C52.6736 33.4979 50.932 33.6224 49.7836 34.3211L38.0492 42.0436L52.0579 42.0343C53.516 42.0698 54.7561 41.4875 55.6853 40.423Z" fill="#0DB04B"/>
<path fill-rule="evenodd" clip-rule="evenodd" d="M32.9239 42.0434L21.1894 34.3213C20.0411 33.6225 18.2998 33.4981 17.0489 34.0624C16.084 34.4192 15.175 35.3169 14.748 36.2119C14.0942 37.519 14.3518 39.3117 15.2877 40.4229C16.217 41.4874 17.457 42.0696 18.9151 42.0345L32.9239 42.0434Z" fill="#FCB813"/>
</svg>
