<svg width="71" height="70" viewBox="0 0 71 70" fill="none" xmlns="http://www.w3.org/2000/svg">
<path d="M70.5 35C70.5 54.33 54.83 70 35.5 70C16.17 70 0.5 54.33 0.5 35C0.5 15.67 16.17 0 35.5 0C54.83 0 70.5 15.67 70.5 35Z" fill="#FFF200"/>
<path d="M33.4092 21.7143H34.1126L34.1968 21.405H25.5036L25.419 21.7143H26.6851C27.7821 21.7143 28.6544 22.4736 28.6544 23.9933C28.6544 24.8372 28.2899 25.9344 27.6987 27.2568L22.0999 39.6929L20.721 23.5439C20.6085 22.278 21.2272 21.7156 22.6628 21.7156H23.4782L23.5622 21.405H11.324L11.2112 21.7143H11.9988C12.9555 21.7143 13.3214 22.3052 13.4338 23.4587L15.6003 44.3343H20.7488L29.3578 26.1035C30.652 23.3741 32.0303 21.7143 33.4092 21.7143ZM32.3964 44.4467C31.6088 44.4467 31.1303 44.1936 31.1303 42.8994C31.1303 41.2674 31.7195 38.0884 32.3674 35.1906C32.4505 36.5411 33.3798 37.8633 34.7587 37.8633C35.0969 37.8633 35.3783 37.8353 35.6577 37.7789C34.3902 43.2936 33.8866 44.4467 32.3964 44.4467ZM56.9013 33.4743C58.5332 33.4743 59.574 32.1238 59.574 30.6046C59.574 29.3104 58.6456 28.3538 57.3234 28.3538C54.9321 28.3538 53.8084 30.2389 51.8383 33.7256C51.4171 31.5591 50.4331 28.7183 47.9 28.7183C45.0592 28.7183 41.7953 32.7699 38.7844 35.2726C37.4339 36.3983 35.9153 37.1293 34.7045 37.1293C33.4673 37.1293 32.7364 35.8618 32.7364 33.6406C33.609 30.0101 34.0869 29.0544 35.4374 29.0544C36.3668 29.0544 36.7596 29.589 36.7596 30.6864C36.7596 31.8385 36.5065 33.8086 36.0003 36.2566C37.3509 35.8334 39.3777 34.1468 41.0643 32.3184C40.1653 30.1802 38.2519 28.7163 35.4658 28.7163C30.3188 28.7163 25.8156 33.3288 25.8156 38.5062C25.8156 42.0799 28.3486 44.7798 32.3152 44.7798C38.8715 44.7798 41.6009 39.097 41.6009 35.158C41.6009 34.5951 41.5726 34.1739 41.5159 33.6669C42.5295 32.5697 43.8235 31.5289 44.8926 31.5289C46.1024 31.5289 47.0591 34.5675 48.0155 39.1537C47.1711 40.081 46.3268 41.8819 45.9056 42.1913C45.7363 40.5593 44.6675 39.5469 43.2329 39.5469C41.6292 39.5469 40.5035 41.0655 40.5035 42.3599C40.5035 43.8231 41.5159 44.7796 42.8381 44.7796C45.6242 44.7796 46.4118 42.1348 48.1562 39.7996C48.6907 42.3028 49.9287 44.7786 52.0667 44.7786C54.5989 44.7786 56.9622 42.612 58.1714 41.0651L57.9467 40.6986C57.159 41.4585 56.3993 41.9649 55.527 41.9649C53.9517 41.9649 52.826 38.5612 51.9543 34.4529C52.4605 33.7503 53.2765 31.9776 53.8394 31.359C54.2342 32.0904 55.0498 33.4689 56.9069 33.4689L56.9013 33.4743Z" fill="#444745"/>
</svg>
