<svg width="71" height="70" viewBox="0 0 71 70" fill="none" xmlns="http://www.w3.org/2000/svg">
<path d="M70.5 35C70.5 54.33 54.83 70 35.5 70C16.17 70 0.5 54.33 0.5 35C0.5 15.67 16.17 0 35.5 0C54.83 0 70.5 15.67 70.5 35Z" fill="black"/>
<path fill-rule="evenodd" clip-rule="evenodd" d="M59.9928 30.07C60.0424 30.2605 59.8241 30.4435 59.7106 30.5835C58.7582 31.75 57.702 33.13 56.4331 34.016C56.5246 34.48 56.476 35.096 56.3104 35.436C56.6427 35.85 56.9955 36.242 57.201 36.778C56.9305 38.178 56.3027 39.264 55.2992 39.974C54.3196 40.666 52.9961 40.939 51.4946 41.276C48.5913 41.9285 43.8143 42.572 41.6604 40.881C39.3282 42.215 34.6151 42.391 32.4336 40.802C30.8831 42.7155 24.7661 42.5475 25.6761 38.7505C24.5417 39.588 22.8643 40.7425 21.2642 41.3945C19.4084 42.1495 15.8941 42.0645 16.2454 39.5005C16.2878 39.195 16.4202 39.0225 16.5695 38.7505C16.0266 37.827 15.6835 37.186 15.3553 36.383C15.0409 35.613 14.5613 34.7365 14.5051 33.661C14.3875 31.373 16.2167 29.9225 18.0275 29.241C18.9513 28.8935 19.7018 28.39 20.6169 28.1375C21.9845 27.7575 23.1568 28.491 23.2472 29.7155C24.8372 29.2555 26.7732 28.748 28.8729 29.045C30.5446 27.7775 33.8094 28.5605 35.955 29.1625C36.4402 29.299 37.093 29.6515 37.4524 29.6365C37.7566 29.6245 38.3062 29.222 38.6252 29.084C40.1308 28.433 42.0991 27.74 44.2509 28.0975C44.6583 28.1645 45.031 28.375 45.4645 28.4125C45.759 28.439 46.1189 28.349 46.4359 28.3345C51.4649 28.095 55.6514 29.411 59.9928 30.07ZM45.9103 29.913C45.3965 29.973 45.032 30.521 44.6961 30.702C44.7207 30.6995 44.7437 30.6955 44.736 30.662C44.7974 30.393 44.915 30.1785 44.9385 29.8735C42.2453 28.9485 39.6242 30.3005 37.6953 31.333C36.1524 32.158 34.7761 33.128 33.8099 34.0945C34.1591 33.5145 34.5297 32.9405 34.9433 32.3985C35.3625 31.848 35.8293 31.35 36.1984 30.86C35.3917 30.654 34.5829 30.4365 33.769 30.2675C32.6126 30.0275 31.0042 29.63 30.0462 30.1495C29.7691 30.2995 29.5421 30.669 29.2773 30.702C29.058 30.7295 28.697 30.5735 28.4271 30.5445C27.4384 30.437 26.5284 30.5265 25.6347 30.702C24.7978 30.8655 23.0284 31.1555 22.8014 31.9245C22.6563 32.4185 22.9804 32.897 22.9231 33.3855C22.8679 33.8655 22.3945 34.5015 22.1542 34.8845C21.8603 35.3545 21.5612 35.7705 21.0612 35.989C20.7586 34.519 21.0878 33.2115 21.3449 31.965C21.5034 31.1965 21.8229 30.41 21.5479 29.6365C20.7759 29.532 20.1262 30.1275 19.3619 30.425C17.9263 30.985 16.3277 31.4955 16.1247 33.1085C16.0102 34.017 16.3604 34.5945 16.6104 35.2395C17.1044 36.53 17.7714 37.7507 18.594 38.8695C18.3793 39.2535 17.8747 39.3535 17.8241 39.8945C18.0526 40.2095 18.528 40.2515 18.9979 40.25C20.3557 40.247 21.4692 39.581 22.4778 39.027C24.6741 37.822 26.1495 35.9675 27.6991 34.2135C27.9711 33.905 28.195 33.5335 28.5493 33.3455C28.8969 34.904 28.2205 35.7375 27.739 37.0145C27.5534 37.5065 26.968 39.0465 27.2533 39.776C27.5662 40.5785 30.2302 40.6135 30.9362 40.093C31.2921 39.8305 31.4337 39.238 31.6249 38.8695C31.8687 38.3955 32.0799 37.9865 32.2721 37.5675C32.2828 39.296 33.5998 39.8035 35.0236 40.1715C38.0501 40.9515 41.1022 39.558 42.7534 38.594C42.5469 39.8745 43.0571 40.003 44.0893 40.2115C46.758 40.7485 49.4455 40.129 51.6162 39.619C53.6065 39.152 55.2066 38.822 55.5016 36.896C55.1831 36.6275 54.3871 36.661 53.8427 36.739C52.2374 36.968 50.6832 37.759 48.5412 37.6065C48.1501 37.579 47.306 37.446 47.2452 37.2125C47.1511 36.8485 47.8198 36.5935 48.3801 36.5025C49.9854 36.2375 52.3064 36.505 53.5993 36.0275C54.22 35.7995 54.9689 35.1405 54.8938 34.4105C54.8447 33.9175 54.1847 33.6595 53.5584 33.622C51.7875 33.514 50.5217 34.522 48.6633 34.174C48.8954 33.888 48.9374 33.4165 49.2288 33.188C50.5881 33.16 51.9087 33.423 53.1949 33.3455C54.9832 33.2365 55.9914 32.502 56.8375 31.5305C56.928 31.4255 57.155 31.313 57.0803 31.1365C53.9741 30.6755 49.74 29.455 45.9103 29.913ZM39.7586 32.95C39.5592 33.835 39.1426 34.848 38.909 35.83C40.1952 35.848 41.552 35.592 42.8746 35.5145C43.0535 35.2815 43.1415 34.9595 43.2391 34.6465C43.5045 35.0125 43.6911 35.6975 43.4416 36.2245C41.4329 36.197 39.9892 37.801 38.0189 37.8025C37.1365 37.8035 36.3865 37.309 36.8042 36.3425C37.3942 34.98 38.8573 34.028 39.7586 32.95ZM44.4533 31.49C44.8316 31.9105 45.6598 31.8925 46.1527 32.201C45.4875 32.3675 44.6501 32.3665 44.0479 32.5945C44.19 32.2325 44.3173 31.857 44.4533 31.49Z" fill="white"/>
</svg>
